<?xml version="1.0" encoding="UTF-8"?>
<!DOCTYPE svg PUBLIC "-//W3C//DTD SVG 1.1//EN" "http://www.w3.org/Graphics/SVG/1.1/DTD/svg11.dtd">
<svg xmlns="http://www.w3.org/2000/svg" version="1.1" width="375px" height="812px" style="shape-rendering:geometricPrecision; text-rendering:geometricPrecision; image-rendering:optimizeQuality; fill-rule:evenodd; clip-rule:evenodd" xmlns:xlink="http://www.w3.org/1999/xlink">
<g><path style="opacity:1" fill="#62609d" d="M -0.5,-0.5 C 92.8333,-0.5 186.167,-0.5 279.5,-0.5C 186.193,86.472 92.8595,173.472 -0.5,260.5C -0.5,173.5 -0.5,86.5 -0.5,-0.5 Z"/></g>
<g><path style="opacity:1" fill="#a2a1dd" d="M 279.5,-0.5 C 311.167,-0.5 342.833,-0.5 374.5,-0.5C 374.5,-0.166667 374.5,0.166667 374.5,0.5C 249.5,116.5 124.5,232.5 -0.5,348.5C -0.5,319.167 -0.5,289.833 -0.5,260.5C 92.8595,173.472 186.193,86.472 279.5,-0.5 Z"/></g>
<g><path style="opacity:1" fill="#f3f3f3" d="M 374.5,0.5 C 374.5,270.833 374.5,541.167 374.5,811.5C 249.5,811.5 124.5,811.5 -0.5,811.5C -0.5,657.167 -0.5,502.833 -0.5,348.5C 124.5,232.5 249.5,116.5 374.5,0.5 Z"/></g>
</svg>
